# xmcd
#
# Track frame offsets: 
#        150
#        21865
#        42215
#        60587
#        81460
#        104885
#        117795
#        135755
#        162315
#        191670
#
# Disc length: 2757 seconds
#
# Revision: 0
# Processed by: cddbd v1.5.1PL0 Copyright (c) Steve Scherf et al.
# Submitted via: ExactAudioCopy v0.95a5
#
DISCID=830ac30a
DTITLE=Yansimalar - Bâb-i Esrar
DYEAR=1995
DGENRE=Instrumental
TTITLE0=Sizi
TTITLE1=Son Kuslar
TTITLE2=Yakamoz
TTITLE3=Ayriliklarda
TTITLE4=Bulutlar
TTITLE5=Yaban Gülü
TTITLE6=Kervan
TTITLE7=Sirlar
TTITLE8=Bâb-i Esrar
TTITLE9=Akdeniz
EXTD=
EXTT0=
EXTT1=
EXTT2=
EXTT3=
EXTT4=
EXTT5=
EXTT6=
EXTT7=
EXTT8=
EXTT9=
PLAYORDER=
